<svg width="372" height="60" viewBox="0 0 372 60" fill="none" xmlns="http://www.w3.org/2000/svg">
<path d="M42.0355 16.3378C41.2392 15.5389 40.2929 14.9049 39.251 14.4724C38.2092 14.0399 37.0922 13.8172 35.9641 13.8172C34.836 13.8172 33.719 14.0399 32.6772 14.4724C31.6353 14.9049 30.6891 15.5389 29.8927 16.3378C27.5443 18.6671 24.4131 31.6119 24.0503 33.1584C24.0121 33.3182 24.0167 33.4854 24.0637 33.6429C24.1106 33.8004 24.1982 33.9428 24.3176 34.0557C24.4317 34.1736 24.5741 34.2601 24.7313 34.3069C24.8885 34.3538 25.0551 34.3593 25.215 34.323C26.6851 33.9603 39.6872 30.8291 42.0355 28.4807C42.8345 27.6843 43.4684 26.738 43.9009 25.6962C44.3335 24.6543 44.5561 23.5373 44.5561 22.4092C44.5561 21.2812 44.3335 20.1642 43.9009 19.1223C43.4684 18.0805 42.8345 17.1342 42.0355 16.3378ZM35.9641 25.2731C35.3977 25.2731 34.844 25.1052 34.373 24.7905C33.9021 24.4758 33.535 24.0285 33.3182 23.5052C33.1015 22.9819 33.0447 22.4061 33.1552 21.8505C33.2658 21.295 33.5385 20.7847 33.939 20.3842C34.3396 19.9837 34.8499 19.7109 35.4054 19.6004C35.9609 19.4899 36.5368 19.5466 37.0601 19.7634C37.5834 19.9801 38.0307 20.3472 38.3453 20.8182C38.66 21.2891 38.828 21.8428 38.828 22.4092C38.828 23.1688 38.5263 23.8972 37.9892 24.4343C37.4521 24.9714 36.7237 25.2731 35.9641 25.2731ZM51.9064 14.104L44.2694 6.46695C44.1699 6.36195 44.0475 6.28145 43.9116 6.23176C43.7758 6.18207 43.6303 6.16454 43.4866 6.18056C43.3424 6.20051 43.2045 6.25189 43.0824 6.33107C42.9603 6.41026 42.8571 6.5153 42.7802 6.63878L39.9163 11.4119C39.8049 11.5943 39.7593 11.8093 39.7871 12.0212C39.8149 12.2331 39.9144 12.4291 40.069 12.5766L45.7968 18.3043C45.882 18.3961 45.9855 18.4689 46.1006 18.5182C46.2157 18.5676 46.3398 18.5923 46.465 18.5907C46.6396 18.5924 46.8113 18.5462 46.9614 18.4571L51.7346 15.5932C51.858 15.5162 51.9631 15.413 52.0423 15.291C52.1215 15.1689 52.1728 15.0309 52.1928 14.8868C52.2088 14.743 52.1913 14.5975 52.1416 14.4617C52.0919 14.3259 52.0114 14.2034 51.9064 14.104ZM38.828 40.5472H15.9169C15.6595 40.5742 15.3994 40.5434 15.1555 40.457C14.9116 40.3706 14.69 40.2308 14.507 40.0478C14.3241 39.8648 14.1843 39.6433 14.0979 39.3994C14.0115 39.1554 13.9806 38.8953 14.0076 38.6379C13.9806 38.3806 14.0115 38.1204 14.0979 37.8765C14.1843 37.6326 14.3241 37.411 14.507 37.2281C14.69 37.0451 14.9116 36.9053 15.1555 36.8189C15.3994 36.7325 15.6595 36.7017 15.9169 36.7287H19.7354C20.2418 36.7287 20.7274 36.5275 21.0855 36.1695C21.4435 35.8114 21.6447 35.3258 21.6447 34.8194C21.6447 34.3131 21.4435 33.8274 21.0855 33.4694C20.7274 33.1113 20.2418 32.9102 19.7354 32.9102H15.9169C15.1583 32.8863 14.4028 33.0182 13.6971 33.2976C12.9914 33.577 12.3504 33.998 11.8137 34.5347C11.277 35.0714 10.8559 35.7124 10.5765 36.4181C10.2971 37.1238 10.1653 37.8793 10.1891 38.6379C10.1653 39.3966 10.2971 40.152 10.5765 40.8578C10.8559 41.5635 11.277 42.2044 11.8137 42.7412C12.3504 43.2779 12.9914 43.6989 13.6971 43.9783C14.4028 44.2577 15.1583 44.3896 15.9169 44.3657H38.828C39.3344 44.3657 39.82 44.5669 40.178 44.9249C40.5361 45.283 40.7372 45.7686 40.7372 46.275C40.7372 46.7813 40.5361 47.267 40.178 47.625C39.82 47.9831 39.3344 48.1842 38.828 48.1842H8.27988C7.77351 48.1842 7.28788 48.3854 6.92983 48.7434C6.57177 49.1015 6.37062 49.5871 6.37062 50.0935C6.37062 50.5998 6.57177 51.0855 6.92983 51.4435C7.28788 51.8016 7.77351 52.0027 8.27988 52.0027H38.828C40.3471 52.0027 41.804 51.3993 42.8781 50.3251C43.9523 49.2509 44.5558 47.7941 44.5558 46.275C44.5558 44.7559 43.9523 43.299 42.8781 42.2248C41.804 41.1506 40.3471 40.5472 38.828 40.5472Z" fill="#E17100"/>
<path d="M72.328 47.816C70.568 47.816 68.776 47.592 66.952 47.144C65.16 46.728 63.656 46.168 62.44 45.464L62.728 38.792H64.12L65.608 42.104C66.056 43.032 66.52 43.8 67 44.408C67.48 45.016 68.12 45.48 68.92 45.8C69.464 46.024 69.976 46.184 70.456 46.28C70.968 46.344 71.528 46.376 72.136 46.376C74.088 46.376 75.624 45.88 76.744 44.888C77.896 43.864 78.472 42.52 78.472 40.856C78.472 39.352 78.072 38.168 77.272 37.304C76.504 36.44 75.256 35.608 73.528 34.808L71.56 33.944C68.872 32.76 66.744 31.384 65.176 29.816C63.64 28.248 62.872 26.168 62.872 23.576C62.872 21.656 63.352 20.024 64.312 18.68C65.304 17.304 66.664 16.248 68.392 15.512C70.12 14.776 72.136 14.408 74.44 14.408C76.136 14.408 77.72 14.632 79.192 15.08C80.696 15.528 82.008 16.136 83.128 16.904L82.792 22.856H81.4L79.624 19.256C79.112 18.2 78.616 17.448 78.136 17C77.688 16.52 77.128 16.216 76.456 16.088C76.072 16.024 75.736 15.976 75.448 15.944C75.192 15.912 74.84 15.896 74.392 15.896C72.824 15.896 71.464 16.36 70.312 17.288C69.192 18.184 68.632 19.432 68.632 21.032C68.632 22.568 69.064 23.816 69.928 24.776C70.792 25.736 72.04 26.584 73.672 27.32L75.832 28.232C78.936 29.576 81.16 31.016 82.504 32.552C83.848 34.056 84.52 35.992 84.52 38.36C84.52 41.176 83.448 43.464 81.304 45.224C79.192 46.952 76.2 47.816 72.328 47.816ZM90.3715 47V45.992L92.2915 45.608C93.6355 45.32 94.3075 44.536 94.3075 43.256V30.152C94.3075 27.912 94.3075 25.672 94.3075 23.432C94.3075 21.192 94.2915 18.952 94.2595 16.712H90.4675C89.4435 16.712 88.6915 16.984 88.2115 17.528C87.7315 18.072 87.2515 18.84 86.7715 19.832L85.0915 23.384H83.7475L83.9875 15.272H111.54L111.78 23.384H110.436L108.756 19.832C108.276 18.84 107.796 18.072 107.316 17.528C106.836 16.984 106.084 16.712 105.06 16.712H101.22V43.256C101.22 44.568 101.892 45.352 103.236 45.608L105.204 45.992V47H90.3715ZM125.718 47.816C123.766 47.816 121.894 47.464 120.102 46.76C118.31 46.056 116.694 45.016 115.254 43.64C113.846 42.232 112.726 40.488 111.894 38.408C111.062 36.328 110.646 33.896 110.646 31.112C110.646 28.392 111.062 25.992 111.894 23.912C112.726 21.832 113.846 20.088 115.254 18.68C116.694 17.272 118.31 16.216 120.102 15.512C121.926 14.776 123.798 14.408 125.718 14.408C127.638 14.408 129.494 14.76 131.286 15.464C133.11 16.168 134.726 17.224 136.134 18.632C137.542 20.008 138.662 21.736 139.494 23.816C140.326 25.896 140.742 28.328 140.742 31.112C140.742 33.832 140.326 36.232 139.494 38.312C138.662 40.392 137.542 42.136 136.134 43.544C134.726 44.952 133.126 46.024 131.334 46.76C129.542 47.464 127.67 47.816 125.718 47.816ZM125.718 46.376C127.542 46.376 129.014 45.912 130.134 44.984C131.254 44.024 132.07 42.424 132.582 40.184C133.094 37.944 133.35 34.92 133.35 31.112C133.35 27.304 133.094 24.296 132.582 22.088C132.07 19.848 131.254 18.264 130.134 17.336C129.014 16.376 127.542 15.896 125.718 15.896C123.926 15.896 122.454 16.376 121.302 17.336C120.182 18.264 119.366 19.848 118.854 22.088C118.342 24.296 118.086 27.304 118.086 31.112C118.086 34.92 118.342 37.944 118.854 40.184C119.366 42.424 120.182 44.024 121.302 44.984C122.454 45.912 123.926 46.376 125.718 46.376ZM139.607 47V45.992L140.615 45.704C141.255 45.512 141.655 45.24 141.815 44.888C142.007 44.504 142.103 43.976 142.103 43.304C142.135 41.448 142.151 39.592 142.151 37.736C142.151 35.88 142.151 34.008 142.151 32.12V30.152C142.151 28.296 142.151 26.44 142.151 24.584C142.151 22.728 142.135 20.872 142.103 19.016C142.103 18.344 142.023 17.832 141.863 17.48C141.703 17.096 141.303 16.808 140.663 16.616L139.607 16.28V15.272H153.047C156.791 15.272 159.671 15.992 161.687 17.432C163.735 18.84 164.759 20.824 164.759 23.384C164.759 24.792 164.199 26.216 163.079 27.656C161.991 29.096 160.311 30.2 158.039 30.968L164.567 43.688C165.111 44.744 165.959 45.464 167.111 45.848L168.023 46.04V47H159.527L152.375 32.024H148.919C148.919 34.296 148.919 36.344 148.919 38.168C148.919 39.992 148.935 41.704 148.967 43.304C148.967 43.944 149.063 44.456 149.255 44.84C149.479 45.224 149.895 45.496 150.503 45.656L151.655 45.992V47H139.607ZM148.919 30.632H151.511C153.783 30.632 155.447 30.056 156.503 28.904C157.559 27.752 158.087 25.992 158.087 23.624C158.087 21.256 157.575 19.512 156.551 18.392C155.559 17.24 153.943 16.664 151.703 16.664H148.967C148.967 17.912 148.951 19.192 148.919 20.504C148.919 21.784 148.919 23.24 148.919 24.872C148.919 26.472 148.919 28.392 148.919 30.632ZM166.908 47V45.992L168.204 45.608C168.876 45.416 169.388 45.128 169.74 44.744C170.124 44.36 170.428 43.832 170.652 43.16L180.348 15.128H184.332L193.98 43.352C194.236 44.056 194.524 44.6 194.844 44.984C195.164 45.336 195.676 45.624 196.38 45.848L197.1 46.04V47H184.908V46.04L185.724 45.8C186.428 45.576 186.844 45.224 186.972 44.744C187.132 44.264 187.1 43.672 186.876 42.968L184.86 36.776H174.252L172.188 42.872C171.964 43.576 171.9 44.152 171.996 44.6C172.092 45.048 172.492 45.4 173.196 45.656L174.252 45.992V47H166.908ZM174.732 35.384H184.428L179.724 20.936L174.732 35.384ZM210.606 47V45.992L212.526 45.608C213.87 45.32 214.542 44.536 214.542 43.256V30.152C214.542 27.912 214.542 25.672 214.542 23.432C214.542 21.192 214.526 18.952 214.494 16.712H210.702C209.678 16.712 208.926 16.984 208.446 17.528C207.966 18.072 207.486 18.84 207.006 19.832L205.326 23.384H203.982L204.222 15.272H231.774L232.014 23.384H230.67L228.99 19.832C228.51 18.84 228.03 18.072 227.55 17.528C227.07 16.984 226.318 16.712 225.294 16.712H221.454V43.256C221.454 44.568 222.126 45.352 223.47 45.608L225.438 45.992V47H210.606ZM227.302 47V45.992L228.598 45.608C229.27 45.416 229.782 45.128 230.134 44.744C230.518 44.36 230.822 43.832 231.046 43.16L240.742 15.128H244.726L254.374 43.352C254.63 44.056 254.918 44.6 255.238 44.984C255.558 45.336 256.07 45.624 256.774 45.848L257.494 46.04V47H245.302V46.04L246.118 45.8C246.822 45.576 247.238 45.224 247.366 44.744C247.526 44.264 247.494 43.672 247.27 42.968L245.254 36.776H234.646L232.582 42.872C232.358 43.576 232.294 44.152 232.39 44.6C232.486 45.048 232.886 45.4 233.59 45.656L234.646 45.992V47H227.302ZM235.126 35.384H244.822L240.118 20.936L235.126 35.384ZM257.183 47V45.992L258.575 45.608C259.183 45.448 259.599 45.144 259.823 44.696C260.079 44.248 260.207 43.704 260.207 43.064V19.832C259.919 19.224 259.663 18.776 259.439 18.488C259.247 18.168 259.039 17.896 258.815 17.672C258.591 17.448 258.287 17.192 257.903 16.904L257.039 16.28V15.272H265.247L281.183 37.064V19.256C281.183 18.616 281.071 18.056 280.847 17.576C280.655 17.096 280.239 16.776 279.599 16.616L278.159 16.28V15.272H285.311V16.28L284.111 16.616C283.503 16.808 283.119 17.144 282.959 17.624C282.831 18.072 282.767 18.616 282.767 19.256V47.192H280.079L261.791 22.04V43.016C261.791 43.688 261.887 44.248 262.079 44.696C262.271 45.144 262.671 45.448 263.279 45.608L264.575 45.992V47H257.183ZM285.238 47V45.992L286.246 45.704C286.886 45.512 287.302 45.224 287.494 44.84C287.686 44.456 287.782 43.944 287.782 43.304V19.016C287.782 18.344 287.67 17.832 287.446 17.48C287.254 17.096 286.838 16.808 286.198 16.616L285.238 16.28V15.272H296.902V16.28L295.894 16.616C295.286 16.776 294.886 17.048 294.694 17.432C294.502 17.816 294.406 18.344 294.406 19.016V43.352C294.406 43.992 294.518 44.504 294.742 44.888C294.966 45.24 295.382 45.512 295.99 45.704L296.902 45.992V47H285.238ZM302.71 47V45.992L303.286 45.848C303.894 45.688 304.214 45.384 304.246 44.936C304.278 44.488 304.07 43.976 303.622 43.4L294.454 30.68L306.166 18.776C306.646 18.296 306.902 17.864 306.934 17.48C306.998 17.064 306.71 16.744 306.07 16.52L305.254 16.28V15.272H312.838V16.28L311.59 16.616C310.854 16.84 310.262 17.112 309.814 17.432C309.366 17.72 308.854 18.168 308.278 18.776L299.734 27.464L310.726 43.16C311.238 43.864 311.718 44.424 312.166 44.84C312.646 45.256 313.286 45.576 314.086 45.8L314.758 45.992V47H302.71ZM313.664 47V45.992L314.96 45.608C315.632 45.416 316.144 45.128 316.496 44.744C316.88 44.36 317.184 43.832 317.408 43.16L327.104 15.128H331.088L340.736 43.352C340.992 44.056 341.28 44.6 341.6 44.984C341.92 45.336 342.432 45.624 343.136 45.848L343.856 46.04V47H331.664V46.04L332.48 45.8C333.184 45.576 333.6 45.224 333.728 44.744C333.888 44.264 333.856 43.672 333.632 42.968L331.616 36.776H321.008L318.944 42.872C318.72 43.576 318.656 44.152 318.752 44.6C318.848 45.048 319.248 45.4 319.952 45.656L321.008 45.992V47H313.664ZM321.488 35.384H331.184L326.48 20.936L321.488 35.384ZM342.97 47V45.992L343.978 45.704C344.618 45.512 345.018 45.24 345.178 44.888C345.37 44.504 345.466 43.976 345.466 43.304C345.498 41.448 345.514 39.592 345.514 37.736C345.514 35.88 345.514 34.008 345.514 32.12V30.152C345.514 28.296 345.514 26.44 345.514 24.584C345.514 22.728 345.498 20.872 345.466 19.016C345.466 18.344 345.386 17.832 345.226 17.48C345.066 17.096 344.666 16.808 344.026 16.616L342.97 16.28V15.272H356.41C360.154 15.272 363.034 15.992 365.05 17.432C367.098 18.84 368.122 20.824 368.122 23.384C368.122 24.792 367.562 26.216 366.442 27.656C365.354 29.096 363.674 30.2 361.402 30.968L367.93 43.688C368.474 44.744 369.322 45.464 370.474 45.848L371.386 46.04V47H362.89L355.738 32.024H352.282C352.282 34.296 352.282 36.344 352.282 38.168C352.282 39.992 352.298 41.704 352.33 43.304C352.33 43.944 352.426 44.456 352.618 44.84C352.842 45.224 353.258 45.496 353.866 45.656L355.018 45.992V47H342.97ZM352.282 30.632H354.874C357.146 30.632 358.81 30.056 359.866 28.904C360.922 27.752 361.45 25.992 361.45 23.624C361.45 21.256 360.938 19.512 359.914 18.392C358.922 17.24 357.306 16.664 355.066 16.664H352.33C352.33 17.912 352.314 19.192 352.282 20.504C352.282 21.784 352.282 23.24 352.282 24.872C352.282 26.472 352.282 28.392 352.282 30.632Z" fill="black"/>
</svg>
